# xmcd
# 
# Track frame offsets:
#     150
#     22206
#     48666
#     69401
#     76724
#     103551
#     120992
#     140415
# 
# Disc length: 2068
# 
# Revision: 0
# Processed by: cddbd v1.5.2PL0 Copyright (c) Steve Scherf et al.
# Submitted via: fre:ac v1.0.17
# 
DISCID=63081208
DTITLE=Rotting Christ - Passage to Arcturo
DYEAR=1991
DGENRE=Black Metal
TTITLE0=Passage to arcturo
TTITLE1=The old coffin spirit
TTITLE2=The forest of N'gai
TTITLE3=The mystical meeting(sevlesmeth esoth spleh dog)
TTITLE4=Gloria de domino inferni
TTITLE5=Inside the eye of algond
TTITLE6=The nereid of esgalduin(dawn of the iconoclast ep)
TTITLE7=Vicious joy and black delight(dawn of the iconoclast ep)
EXTD=
EXTT0=
EXTT1=
EXTT2=
EXTT3=
EXTT4=
EXTT5=
EXTT6=
EXTT7=
PLAYORDER=
